# xmcd
# 
# Track frame offsets:
#     183
#     16885
#     33985
#     57718
#     75228
#     92258
#     107280
#     126815
#     146185
#     169713
# 
# Disc length: 2607
# 
# Revision: 2
# Processed by: cddbd v1.5.2PL0 Copyright (c) Steve Scherf et al.
# Submitted via: fre:ac v1.1beta1pre4
# 
DISCID=720a2d0a
DTITLE=Thomas Dolby - The Golden Age Of Wireless
DYEAR=1983
DGENRE=New Wave
TTITLE0=She Blinded Me With Science
TTITLE1=Radio Silence
TTITLE2=Airwaves
TTITLE3=Flying North
TTITLE4=Weightless
TTITLE5=Europa And The Pirate Twins
TTITLE6=Windpower
TTITLE7=Commercial Breakup
TTITLE8=One Of Our Submarines
TTITLE9=Cloudburst On Shingle Street
EXTD=
EXTT0=
EXTT1=
EXTT2=
EXTT3=
EXTT4=
EXTT5=
EXTT6=
EXTT7=
EXTT8=
EXTT9=
PLAYORDER=
